<svg xmlns="http://www.w3.org/2000/svg" width="55" height="55" viewBox="0 0 55 55">
  <metadata><?xpacket begin="﻿" id="W5M0MpCehiHzreSzNTczkc9d"?>
<x:xmpmeta xmlns:x="adobe:ns:meta/" x:xmptk="Adobe XMP Core 5.6-c142 79.160924, 2017/07/13-01:06:39        ">
   <rdf:RDF xmlns:rdf="http://www.w3.org/1999/02/22-rdf-syntax-ns#">
      <rdf:Description rdf:about=""/>
   </rdf:RDF>
</x:xmpmeta>
                                                                                                    
                                                                                                    
                                                                                                    
                                                                                                    
                                                                                                    
                                                                                                    
                                                                                                    
                                                                                                    
                                                                                                    
                                                                                                    
                                                                                                    
                                                                                                    
                                                                                                    
                                                                                                    
                                                                                                    
                                                                                                    
                                                                                                    
                                                                                                    
                                                                                                    
                                                                                                    
                           
<?xpacket end="w"?></metadata>
<defs>
    <style>
      .cls-1 {
        fill: #5eb6c4;
        fill-rule: evenodd;
      }
    </style>
  </defs>
  <path class="cls-1" d="M638.5,870.012A27.488,27.488,0,1,0,665.988,897.5,27.5,27.5,0,0,0,638.5,870.012h0Zm0,2.8a24.7,24.7,0,0,1,22.2,13.915v0.053a8.4,8.4,0,0,1,.046.9,5.533,5.533,0,0,1,.7.748,24.923,24.923,0,0,1,1.247,4.434,1.58,1.58,0,0,1-1.052.405c-2.549-2.01-.055,2.206,1.348,1.443a25.493,25.493,0,0,1,.2,2.8,24.482,24.482,0,0,1-5.94,15.964,3.69,3.69,0,0,1,.1-0.654c1.715-2.081,1.4-6.188-2.1-5.737-1.817,1.426-4.334,3.258-6.54,1.153-2.3-2.073-1.232-5.5.054-7.832,1.286-1.872,1.708-4.64,3.991-5.59,2.253,0.515,5.012.359,5.839-2.392,0.7-1.234.3-1.647-.351-1.95a0.854,0.854,0,0,1-.148-0.046c-0.749-.314-1.7-0.563-1.8-1.646,0.671-1.153-.748-3.514-1.294-1.4,1.162,1.316,1.427,5.269-1.348,3.8,0.99,1.582-3.578.568-2.7,2.789,0.725,2.417-4.124,3.782-2.744.7,0.78-2.269-.359-5.676,1.652-7.134-0.023-.07.18-0.374,0.094-0.054a1.884,1.884,0,0,1,.2-0.148c1.753-1.209-2.23-4.841-2-2.6,1.715,0.9.772,2.706-.9,1.8-1.754-.865-2.393-5.674.046-5.339,1.84,0.242.086-1.7-.748-2.644-0.085.437-.218-0.086-0.148-0.147-0.039-.047-0.117-0.116-0.156-0.156,0.234-2.892-4.583-.36-5.386-2.939-3.032-1.5-6.5-1.589-9.876-1.347a24.335,24.335,0,0,1,3.991-.851l0.4-.047c0.374-.039.756-0.086,1.1-0.148,0.654-.054,1.325-0.1,2-0.1H638.5Zm-10.328,3.29c3.445,1.146-1.746,4.794.849,6.236a1.668,1.668,0,0,1,.694.148c0.07-.07.094-0.032,0.1,0.054,1.162,0.539,1.411,2.2-.5,2.09-2.643-.749-3.687,4.894-1.1,4.193,0.951-2.657,3.819-1.535,4.341.795,1.544,2.4-1.613,2.379-2.7,3.4,1.091,1.966-1.917.929-3.04,1.9-2.151.475-2.814,3.742-4.692,3.841-0.078-3.42-5.776-2.266-4.841.843,1.216,0.951,2.838,1.933,2.6,3.944-0.094,4.24,5.121,2.846,7.436,5.091,2.845,1.247,4.669,3.812,7.179,5.488,2.175-.741,6.2,1.325,4.046,3.935a17.256,17.256,0,0,1-4.342,2.346v0.054a11.667,11.667,0,0,1-2.946.649,24.53,24.53,0,0,1-5.433-2.449c-0.008-.016.007-0.032,0-0.046-0.772-2.245-2.838-3.633-4.241-5.441a2.968,2.968,0,0,1-.8-2.441c0.016-.006-0.015-0.046,0-0.054,0.094-1.434.6-2.931-.444-4.24-1.629-2.721-3.679-5.214-4.739-8.231-0.117-3.117-.289-6.111.748-9.081,2.307-4.74,8.06-9.8,11.825-13.018h0Zm7.335,3.844a1.109,1.109,0,0,1,.3.046c0.6,0,.4.67,0,0.85-1.419,1.333-1.77-.616-0.6-0.85a1.717,1.717,0,0,1,.3-0.046h0Zm1.941,0.443a1.99,1.99,0,0,1,2.346,1.5c0.717,2.861-2.136,4.709-3.2,7.04-2.627-.735.148-3.634-1-5.045-1.574-1.629.141-3.272,1.848-3.492h0Zm-5.137,2.846c1.66-.1,1.341,3.57-0.047,4.139-1.216-1.114.382-2.753-.3-4.038a1.82,1.82,0,0,1,.351-0.1h0Zm14.319,5.885c0.545-.031,1.761.53,1.645,1.3-0.523.88-2,.8-1.45-0.5-0.593-.555-0.523-0.781-0.195-0.8h0Zm-14.366,3.8c0.647-.118,2.042.373,0.748,1.145,0.413-.437-0.3-0.273-0.4-0.25-0.834-.577-0.741-0.825-0.343-0.895h0Zm-5.238,2.041c0.179,0.024-.062.265-0.3,0.2h-0.047a0.431,0.431,0,0,1-.1-0.1,1.034,1.034,0,0,1,.452-0.1h0Zm-5.09,6.938a1.092,1.092,0,0,1,.4,0,2.434,2.434,0,0,1,.453.1,0.089,0.089,0,0,0,0,.047,1.006,1.006,0,0,1,.8,1.294,1.026,1.026,0,0,1-1.1-.443c-0.9-.555-0.881-0.9-0.546-1h0Z" transform="translate(-611 -870)"/>
</svg>
