<svg xmlns="http://www.w3.org/2000/svg" width="52" height="50" viewBox="0 0 52 50">
  <metadata><?xpacket begin="﻿" id="W5M0MpCehiHzreSzNTczkc9d"?>
<x:xmpmeta xmlns:x="adobe:ns:meta/" x:xmptk="Adobe XMP Core 5.6-c142 79.160924, 2017/07/13-01:06:39        ">
   <rdf:RDF xmlns:rdf="http://www.w3.org/1999/02/22-rdf-syntax-ns#">
      <rdf:Description rdf:about=""/>
   </rdf:RDF>
</x:xmpmeta>
                                                                                                    
                                                                                                    
                                                                                                    
                                                                                                    
                                                                                                    
                                                                                                    
                                                                                                    
                                                                                                    
                                                                                                    
                                                                                                    
                                                                                                    
                                                                                                    
                                                                                                    
                                                                                                    
                                                                                                    
                                                                                                    
                                                                                                    
                                                                                                    
                                                                                                    
                                                                                                    
                           
<?xpacket end="w"?></metadata>
<defs>
    <style>
      .cls-1 {
        fill: #5eb6c4;
        fill-rule: evenodd;
      }
    </style>
  </defs>
  <path class="cls-1" d="M808.339,873.011a2.912,2.912,0,0,0-2.891,2.942v4.407H793.9a2.911,2.911,0,0,0-2.89,2.942v16.17h51.978V883.3a2.912,2.912,0,0,0-2.891-2.942H828.551v-4.407a2.911,2.911,0,0,0-2.891-2.942H808.339Zm2.883,2.942h11.555a1.457,1.457,0,0,1,1.445,1.473v2.934H809.784v-2.934a1.451,1.451,0,0,1,1.438-1.473h0Zm-18.766,26.452v19.113a1.455,1.455,0,0,0,1.445,1.469h46.2a1.455,1.455,0,0,0,1.445-1.469V902.405H819.886v4.416a1.455,1.455,0,0,1-1.445,1.469h-2.883a1.455,1.455,0,0,1-1.445-1.469v-4.416H792.456Z" transform="translate(-791 -873)"/>
</svg>
