<svg xmlns="http://www.w3.org/2000/svg" width="56" height="50" viewBox="0 0 56 50">
  <metadata><?xpacket begin="﻿" id="W5M0MpCehiHzreSzNTczkc9d"?>
<x:xmpmeta xmlns:x="adobe:ns:meta/" x:xmptk="Adobe XMP Core 5.6-c142 79.160924, 2017/07/13-01:06:39        ">
   <rdf:RDF xmlns:rdf="http://www.w3.org/1999/02/22-rdf-syntax-ns#">
      <rdf:Description rdf:about=""/>
   </rdf:RDF>
</x:xmpmeta>
                                                                                                    
                                                                                                    
                                                                                                    
                                                                                                    
                                                                                                    
                                                                                                    
                                                                                                    
                                                                                                    
                                                                                                    
                                                                                                    
                                                                                                    
                                                                                                    
                                                                                                    
                                                                                                    
                                                                                                    
                                                                                                    
                                                                                                    
                                                                                                    
                                                                                                    
                                                                                                    
                           
<?xpacket end="w"?></metadata>
<defs>
    <style>
      .cls-1 {
        fill: #5eb6c4;
        fill-rule: evenodd;
      }
    </style>
  </defs>
  <path class="cls-1" d="M455.175,873.013a4.036,4.036,0,0,0-4.015,3.218h-0.1l-13.18,14.514h6.59l9.116-10.027a3.772,3.772,0,0,0,3.195,0l9.106,10.027h6.6L459.3,876.231h-0.106a4.018,4.018,0,0,0-4.014-3.218h0Zm-23.887,20.953a3.258,3.258,0,0,0-3.3,3.228v1.612a3.215,3.215,0,0,0,3.042,3.174l5.2,17.781c1.649,3.226,3.3,3.226,4.939,3.226h29.667c1.65,0,3.289,0,4.94-3.226l5.207-17.781a3.215,3.215,0,0,0,3.032-3.174v-1.612a3.25,3.25,0,0,0-3.29-3.228H431.288Zm9.269,8.06h0.819a4.226,4.226,0,0,1,4.015,3.023l2.318,10.029a2.476,2.476,0,0,1-2.623,3.069h-0.83a4.261,4.261,0,0,1-4.014-3.069l-2.317-10.029a2.451,2.451,0,0,1,2.632-3.023h0Zm15.448,0a3.251,3.251,0,0,1,3.29,3.229v9.672a3.3,3.3,0,0,1-6.59,0v-9.672a3.259,3.259,0,0,1,3.3-3.229h0Zm14.618,0h0.83a2.446,2.446,0,0,1,2.622,3.023l-2.317,10.029a4.259,4.259,0,0,1-4.015,3.069h-0.83a2.477,2.477,0,0,1-2.622-3.069l2.318-10.029a4.228,4.228,0,0,1,4.014-3.023h0Z" transform="translate(-428 -873)"/>
</svg>
